# xmcd CD database file
#
# Track frame offsets:
#	150
#	15357
#	33852
#	55832
#	68802
#	94775
#	120145
#	149017
#	167332
#
# Disc length: 2486 seconds
#
# Revision: 0
# Processed by: cddbd v1.5.1PL0 Copyright (c) Steve Scherf et al.
# Submitted via: CDex 1.51
#
DISCID=6609b409
DTITLE=Jimmy Rowles - Isfahan
DYEAR=1900
DGENRE=Jazz
TTITLE0=Marjo
TTITLE1=Black Butterfly
TTITLE2=It might as well be spring
TTITLE3=How deepis the ocean
TTITLE4=Voices deep within me
TTITLE5=Yeterdays
TTITLE6=Button up Your overcoat
TTITLE7=This is a night for love
TTITLE8=Isfahan
EXTD=
EXTT0=
EXTT1=
EXTT2=
EXTT3=
EXTT4=
EXTT5=
EXTT6=
EXTT7=
EXTT8=
PLAYORDER=
